<svg xmlns="http://www.w3.org/2000/svg" version="1.1" xmlns:xlink="http://www.w3.org/1999/xlink" xmlns:svgjs="http://svgjs.dev/svgjs" width="1500" height="1458" viewBox="0 0 1500 1458"><g transform="matrix(1,0,0,1,-0.9701725850036382,-2.3516129032258277)"><svg viewBox="0 0 255 248" data-background-color="#000000" preserveAspectRatio="xMidYMid meet" height="1458" width="1500" xmlns="http://www.w3.org/2000/svg" xmlns:xlink="http://www.w3.org/1999/xlink"><g id="tight-bounds" transform="matrix(1,0,0,1,0.16492933945062305,0.4000000000000057)"><svg viewBox="0 0 254.67014132109878 247.2" height="247.2" width="254.67014132109878"><g><svg viewBox="0 0 397.4976 385.83795575826025" height="247.2" width="254.67014132109878"><g><rect width="397.4976" height="7.5405673449480135" x="0" y="216.31671848960937" fill="#54eb0a" opacity="1" stroke-width="0" stroke="transparent" fill-opacity="1" class="rect-yte-0" data-fill-palette-color="secondary" rx="1%" id="yte-0" data-palette-color="#54eb0a"></rect></g><g transform="matrix(1,0,0,1,0.9887999999999693,243.59699092604433)"><svg viewBox="0 0 395.52000000000004 142.24096483221592" height="142.24096483221592" width="395.52000000000004"><g id="textblocktransform"><svg viewBox="0 0 395.52000000000004 142.24096483221592" height="142.24096483221592" width="395.52000000000004" id="textblock"><g><svg viewBox="0 0 395.52000000000004 83.61589103291713" height="83.61589103291713" width="395.52000000000004"><g transform="matrix(1,0,0,1,0,0)"><svg width="395.52000000000004" viewBox="3.9 -36.75 176.19 37.25" height="83.61589103291713" data-palette-color="#54eb0a"><path d="M23.65 0L12.4-16.45 9.4-12.75 9.4 0 3.9 0 3.9-36.75 9.4-36.75 9.4-20.35 22-36.75 28.7-36.75 16.05-20.6 30.5 0 23.65 0ZM41.25 0.5Q36.5 0.5 34.72-2.3 32.95-5.1 32.95-10.1L32.95-10.1 32.95-22.95 38.35-22.95 38.35-11.45Q38.35-8.6 38.67-7.03 39-5.45 39.97-4.7 40.95-3.95 42.9-3.95L42.9-3.95Q44.3-3.95 45.6-4.75 46.9-5.55 47.72-6.93 48.55-8.3 48.55-9.95L48.55-9.95 48.55-22.95 53.9-22.95 53.9 0 49.5 0 48.9-3.35Q47.65-1.4 45.77-0.45 43.9 0.5 41.25 0.5L41.25 0.5ZM69 0.5Q66.59 0.5 64.02-0.13 61.45-0.75 60.34-1.6L60.34-1.6 62.15-5.85Q65.14-3.75 69-3.75L69-3.75Q72.84-3.75 72.84-6L72.84-6Q72.84-7 72.05-7.55 71.25-8.1 69.2-8.85L69.2-8.85 67.3-9.55Q64.3-10.75 62.55-12.43 60.8-14.1 60.8-16.85L60.8-16.85Q60.8-20 63.27-21.78 65.75-23.55 69.9-23.55L69.9-23.55Q71.95-23.55 73.92-23.1 75.9-22.65 76.95-21.95L76.95-21.95 75-17.65Q74.34-18.3 72.92-18.78 71.5-19.25 69.75-19.25L69.75-19.25Q66.2-19.25 66.2-17.1L66.2-17.1Q66.2-15.9 67.15-15.28 68.09-14.65 70.25-13.9L70.25-13.9Q70.45-13.85 71.8-13.35L71.8-13.35Q75-12.1 76.55-10.5 78.09-8.9 78.09-6.4L78.09-6.4Q78.09-3 75.52-1.25 72.95 0.5 69 0.5L69 0.5ZM94.39 0.5Q90.84 0.5 88.09-1.1 85.34-2.7 83.84-5.45 82.34-8.2 82.34-11.55L82.34-11.55Q82.34-14.85 83.82-17.6 85.29-20.35 88.04-21.95 90.79-23.55 94.39-23.55L94.39-23.55Q97.99-23.55 100.72-21.95 103.44-20.35 104.92-17.6 106.39-14.85 106.39-11.55L106.39-11.55Q106.39-8.2 104.89-5.45 103.39-2.7 100.67-1.1 97.94 0.5 94.39 0.5L94.39 0.5ZM94.54-3.9Q97.44-3.9 99.12-6.05 100.79-8.2 100.79-11.45L100.79-11.45Q100.79-14.7 98.99-16.93 97.19-19.15 94.24-19.15L94.24-19.15Q91.39-19.15 89.67-16.95 87.94-14.75 87.94-11.45L87.94-11.45Q87.94-8.25 89.79-6.08 91.64-3.9 94.54-3.9L94.54-3.9ZM112.14 0L112.14-22.95 117.54-22.95 117.54-18.8Q118.64-21.15 120.77-22.35 122.89-23.55 125.64-23.55L125.64-23.55Q131.79-23.5 133.19-19.3L133.19-19.3Q134.29-21.25 136.49-22.4 138.69-23.55 141.14-23.55L141.14-23.55Q144.74-23.55 146.59-22.18 148.44-20.8 149.07-18.28 149.69-15.75 149.69-11.5L149.69-11.5 149.69 0 144.24 0 144.24-11.55Q144.24-15.6 143.42-17.35 142.59-19.1 140.24-19.1L140.24-19.1Q137.09-19.1 135.47-16.98 133.84-14.85 133.84-11.4L133.84-11.4 133.84 0 128.44 0 128.44-12.35Q128.44-15 128.24-16.3 128.04-17.6 127.14-18.35 126.24-19.1 124.24-19.1L124.24-19.1Q122.49-19.1 120.97-18.05 119.44-17 118.52-15.23 117.59-13.45 117.59-11.4L117.59-11.4 117.59 0 112.14 0ZM166.74 0.5Q163.64 0.5 161.01-0.98 158.39-2.45 156.81-5.18 155.24-7.9 155.24-11.55L155.24-11.55Q155.24-15.15 156.61-17.85 157.99-20.55 160.54-22.05 163.09-23.55 166.54-23.55L166.54-23.55Q168.54-23.55 170.29-22.85 172.04-22.15 173.24-21.13 174.44-20.1 174.84-19.1L174.84-19.1 174.94-22.95 180.09-22.95 180.09 0 174.99 0 174.89-4.05Q174.04-2.25 171.79-0.88 169.54 0.5 166.74 0.5L166.74 0.5ZM167.64-4Q170.49-4 172.44-5.98 174.39-7.95 174.39-11.15L174.39-11.15 174.39-11.5Q174.39-13.65 173.49-15.35 172.59-17.05 171.04-18 169.49-18.95 167.64-18.95L167.64-18.95Q164.44-18.95 162.69-16.88 160.94-14.8 160.94-11.5L160.94-11.5Q160.94-8.15 162.66-6.08 164.39-4 167.64-4L167.64-4Z" opacity="1" transform="matrix(1,0,0,1,0,0)" fill="#54eb0a" class="wordmark-text-0" data-fill-palette-color="primary" id="text-0"></path></svg></g></svg></g><g transform="matrix(1,0,0,1,75.54432000000001,103.35559612440409)"><svg viewBox="0 0 244.43136 38.88536870781183" height="38.88536870781183" width="244.43136"><g transform="matrix(1,0,0,1,0,0)"><svg width="244.43136" viewBox="3.37 -35.23 282.81 44.99999999999999" height="38.88536870781183" data-palette-color="#54eb0a"><path d="M8.25-0.02L8.25 9.77 4.05 9.77 4.05-15.82Q4.05-20.07 3.93-21.41L3.93-21.41Q3.81-23.07 3.37-24.98L3.37-24.98 7.42-25.88Q7.84-24.51 8.03-23.12L8.03-23.12Q8.28-21.41 8.3-20.48L8.3-20.48 8.67-20.48Q9.94-23.12 11.47-24.37L11.47-24.37Q13.33-25.95 16.06-25.95L16.06-25.95Q18.46-25.95 20.19-24.91 21.92-23.88 22.89-22.02 23.85-20.17 24.3-17.94 24.76-15.72 24.76-13.04L24.76-13.04Q24.76-10.01 24.13-7.59 23.51-5.18 22.22-3.31 20.92-1.44 18.75-0.43 16.58 0.59 13.65 0.59L13.65 0.59Q11.35 0.59 8.25-0.02L8.25-0.02ZM8.25-15.09L8.25-15.09 8.25-3.74Q11.01-3 13.33-3L13.33-3Q15.31-3 16.74-3.72 18.16-4.44 18.97-5.75 19.78-7.06 20.14-8.67 20.51-10.28 20.51-12.28L20.51-12.28Q20.51-13.65 20.45-14.69 20.39-15.72 20.23-16.93 20.07-18.14 19.73-18.99 19.38-19.85 18.87-20.58 18.36-21.31 17.54-21.69 16.72-22.07 15.65-22.07L15.65-22.07Q13.06-22.07 11.16-20L11.16-20Q9.79-18.48 8.25-15.09ZM49.07-4.71L50.29-1.42Q47.58-0.34 45.2 0.12 42.82 0.59 40.94 0.59L40.94 0.59Q38.06 0.59 35.91-0.33 33.76-1.25 32.33-2.91 30.91-4.57 30.19-6.87 29.47-9.18 29.47-11.96L29.47-11.96Q29.47-13.67 29.71-15.38 29.95-17.09 30.49-18.64 31.03-20.19 31.89-21.53 32.76-22.88 34.01-23.85 35.25-24.83 36.91-25.39 38.57-25.95 40.7-25.95L40.7-25.95Q46.14-25.95 48.9-22.55 51.66-19.14 51.66-12.79L51.66-12.79 51.66-11.45 33.79-11.45Q33.79-9.4 34.23-7.82 34.67-6.25 35.58-5.16 36.5-4.08 37.9-3.52 39.3-2.95 41.23-2.95L41.23-2.95Q42.31-2.95 43.37-3.11 44.43-3.27 45.43-3.53 46.43-3.78 47.35-4.1 48.26-4.42 49.07-4.71L49.07-4.71ZM33.91-14.82L47.43-14.82Q47.24-18.77 45.54-20.59 43.85-22.41 40.7-22.41L40.7-22.41Q37.55-22.41 35.9-20.59 34.25-18.77 33.91-14.82L33.91-14.82ZM57.39-24.95L57.39-24.95 61.45-25.85Q61.91-24.39 62.1-23.02L62.1-23.02Q62.2-22.36 62.35-20.41L62.35-20.41 62.86-20.41Q64.2-22.88 66.18-24.34L66.18-24.34Q68.35-25.95 70.77-25.95L70.77-25.95Q74.41-25.95 76.31-24.19L76.31-24.19Q77.95-22.71 78.58-19.63L78.58-19.63Q79-17.53 79-13.38L79-13.38 79 0 74.8 0 74.8-14.55Q74.8-18.19 74.09-19.75L74.09-19.75Q73.04-22.07 69.87-22.07L69.87-22.07Q67.62-22.07 65.47-19.92L65.47-19.92Q64.03-18.48 62.4-15.7L62.4-15.7 62.4 0 58.2 0 58.2-15.63Q58.2-18.92 58.03-21.31L58.03-21.31Q57.93-22.8 57.39-24.95ZM101.04-25.34L101.04-35.16 105.24-35.16 105.24-9.59Q105.24-5.3 105.36-3.96L105.36-3.96Q105.49-2.29 105.93-0.39L105.93-0.39 101.87 0.51Q101.46-0.85 101.26-2.25L101.26-2.25Q101.02-3.96 100.99-4.88L100.99-4.88 100.63-4.88Q99.36-2.25 97.82-1L97.82-1Q95.96 0.59 93.23 0.59L93.23 0.59Q90.84 0.59 89.1-0.45 87.37-1.49 86.41-3.34 85.44-5.2 84.99-7.42 84.54-9.64 84.54-12.33L84.54-12.33Q84.54-15.36 85.16-17.77 85.78-20.19 87.08-22.06 88.37-23.93 90.54-24.94 92.72-25.95 95.65-25.95L95.65-25.95Q97.94-25.95 101.04-25.34L101.04-25.34ZM101.04-10.28L101.04-10.28 101.04-21.63Q98.28-22.36 95.96-22.36L95.96-22.36Q93.99-22.36 92.56-21.64 91.13-20.92 90.32-19.62 89.52-18.31 89.15-16.7 88.79-15.09 88.79-13.09L88.79-13.09Q88.79-11.72 88.85-10.68 88.91-9.64 89.07-8.44 89.23-7.23 89.57-6.37 89.91-5.52 90.42-4.79 90.93-4.05 91.75-3.67 92.57-3.3 93.64-3.3L93.64-3.3Q96.23-3.3 98.14-5.37L98.14-5.37Q99.5-6.88 101.04-10.28ZM115.1-20.9L115.1-20.9 114.03-24.32Q118.13-25.95 122.62-25.95L122.62-25.95Q126.55-25.95 128.63-24.63L128.63-24.63Q131-23.12 131-19.48L131-19.48 131-9.5Q131-7.5 131.04-5.4L131.04-5.4Q131.07-4.15 131.29-2.81L131.29-2.81Q131.48-1.54 131.8-0.39L131.8-0.39 127.8 0.49Q127.24-1.15 127.09-3.17L127.09-3.17 126.6-3.22Q123.57 0.59 118.89 0.59L118.89 0.59Q115.47 0.59 113.39-1.31 111.32-3.2 111.32-6.64L111.32-6.64Q111.32-9.2 112.45-10.84 113.59-12.48 115.66-13.6L115.66-13.6Q118.94-15.38 124.82-15.38L124.82-15.38Q125.6-15.38 126.92-15.33L126.92-15.33 126.92-19.04Q126.92-20.8 125.84-21.58 124.77-22.36 122.48-22.36L122.48-22.36Q119.13-22.36 115.1-20.9ZM126.92-7.13L126.92-7.13 126.92-12.26Q126.26-12.3 124.99-12.3L124.99-12.3Q122.84-12.3 121.03-11.94L121.03-11.94Q118.35-11.4 116.87-10.24 115.4-9.08 115.4-6.91L115.4-6.91Q115.4-3 119.64-3L119.64-3Q121.84-3 123.74-4.17L123.74-4.17Q125.31-5.15 126.92-7.13ZM153.21 0L153.21-35.16 157.41-35.16 157.41-14.01 168.83-25.95 171.59-23.27 161.7-13.09 174.18 0 168.95 0 157.41-12.21 157.41 0 153.21 0ZM180.99-35.23L180.99-35.23Q182.11-35.23 182.94-34.45L182.94-34.45Q183.75-33.59 183.75-32.45L183.75-32.45Q183.75-31.27 182.94-30.47L182.94-30.47Q182.11-29.64 180.99-29.64L180.99-29.64Q179.82-29.64 178.99-30.47L178.99-30.47Q178.16-31.25 178.16-32.45L178.16-32.45Q178.16-33.62 178.99-34.45L178.99-34.45Q179.82-35.23 180.99-35.23ZM178.84 0L178.84-25.39 183.04-25.39 183.04 0 178.84 0ZM194.02-25.39L194.02-31.2 198.22-31.2 198.22-25.39 206.77-25.39 206.77-21.85 198.22-21.85 198.22-7.28Q198.22-5.81 198.31-5.04 198.39-4.27 198.73-3.83L198.73-3.83Q199.37-2.95 201.3-2.95L201.3-2.95Q202.37-2.95 203.37-3.17L203.37-3.17Q204.4-3.39 205.25-3.66L205.25-3.66Q205.94-2.17 206.5-0.39L206.5-0.39Q203.62 0.59 200.69 0.59L200.69 0.59Q198.56 0.59 197.28 0.11 196-0.37 195.27-1.44L195.27-1.44Q194.51-2.56 194.27-4.13 194.02-5.69 194.02-8.45L194.02-8.45 194.02-21.85 190.36-21.85 190.36-25.39 194.02-25.39ZM214.28-20.9L214.28-20.9 213.21-24.32Q217.31-25.95 221.8-25.95L221.8-25.95Q225.73-25.95 227.81-24.63L227.81-24.63Q230.18-23.12 230.18-19.48L230.18-19.48 230.18-9.5Q230.18-7.5 230.23-5.4L230.23-5.4Q230.25-4.15 230.47-2.81L230.47-2.81Q230.67-1.54 230.98-0.39L230.98-0.39 226.98 0.49Q226.42-1.15 226.27-3.17L226.27-3.17 225.78-3.22Q222.76 0.59 218.07 0.59L218.07 0.59Q214.65 0.59 212.58-1.31 210.5-3.2 210.5-6.64L210.5-6.64Q210.5-9.2 211.64-10.84 212.77-12.48 214.85-13.6L214.85-13.6Q218.12-15.38 224-15.38L224-15.38Q224.78-15.38 226.1-15.33L226.1-15.33 226.1-19.04Q226.1-20.8 225.03-21.58 223.95-22.36 221.66-22.36L221.66-22.36Q218.31-22.36 214.28-20.9ZM226.1-7.13L226.1-7.13 226.1-12.26Q225.44-12.3 224.17-12.3L224.17-12.3Q222.02-12.3 220.22-11.94L220.22-11.94Q217.53-11.4 216.05-10.24 214.58-9.08 214.58-6.91L214.58-6.91Q214.58-3 218.83-3L218.83-3Q221.02-3 222.93-4.17L222.93-4.17Q224.49-5.15 226.1-7.13ZM238.4-0.2L238.4-35.16 242.6-35.16 242.6-20.53 243.11-20.48Q244.26-23.02 245.82-24.34L245.82-24.34Q247.63-25.95 250.19-25.95L250.19-25.95Q254.66-25.95 257.03-22.19L257.03-22.19Q259.15-18.7 259.15-13.18L259.15-13.18Q259.15-6.47 255.96-2.83L255.96-2.83Q252.9 0.59 246.92 0.59L246.92 0.59Q243.65 0.59 238.4-0.2L238.4-0.2ZM242.36-14.99L242.36-14.99 242.36-3.47Q244.6-3 246.92-3L246.92-3Q250.88-3 252.86-5.32L252.86-5.32Q254.91-7.71 254.91-12.43L254.91-12.43Q254.91-16.7 253.98-19.02L253.98-19.02Q252.76-22.07 249.83-22.07L249.83-22.07Q247.27-22.07 245.31-19.92L245.31-19.92Q243.94-18.46 242.36-14.99ZM286.18-0.44L286.18-0.44 282.13 0.46Q281.66-1 281.47-2.37L281.47-2.37Q281.37-3 281.22-4.96L281.22-4.96 280.71-4.96Q279.37-2.49 277.39-1.03L277.39-1.03Q275.22 0.59 272.8 0.59L272.8 0.59Q269.16 0.59 267.26-1.17L267.26-1.17Q265.62-2.66 264.99-5.74L264.99-5.74Q264.57-7.84 264.57-11.99L264.57-11.99 264.57-25.39 268.77-25.39 268.77-10.82Q268.77-7.18 269.48-5.62L269.48-5.62Q270.53-3.3 273.7-3.3L273.7-3.3Q275.95-3.3 278.1-5.44L278.1-5.44Q279.54-6.88 281.17-9.67L281.17-9.67 281.17-25.39 285.37-25.39 285.37-9.72Q285.37-6.47 285.54-4.08L285.54-4.08Q285.64-2.59 286.18-0.44Z" opacity="1" transform="matrix(1,0,0,1,0,0)" fill="#54eb0a" class="slogan-text-1" data-fill-palette-color="secondary" id="text-1"></path></svg></g></svg></g></svg></g></svg></g><g transform="matrix(1,0,0,1,96.70703201021801,0)"><svg viewBox="0 0 204.08353597956395 196.57701339812243" height="196.57701339812243" width="204.08353597956395"><g><svg xmlns="http://www.w3.org/2000/svg" xmlns:xlink="http://www.w3.org/1999/xlink" xml:space="preserve" version="1.0" style="shape-rendering:geometricPrecision;text-rendering:geometricPrecision;image-rendering:optimizeQuality;" viewBox="18.1101539136314 9.876547255282894 363.7074735441807 380.13177776315337" x="8" y="0" fill-rule="evenodd" clip-rule="evenodd" height="196.57701339812243" width="188.08353597956395" class="icon-icon-0" data-fill-palette-color="accent" id="icon-0"><g fill="#54eb0a" data-fill-palette-color="accent"><path class="" d="M127 139C131 133 138 131 141 139zM381 126C378 112 368 111 354 107 354 84 353 67 349 45 345 24 343 5 321 11 316 24 327 50 329 68 331 88 327 113 333 131 361 141 361 117 351 169 347 189 358 208 342 213 324 220 335 221 329 256 325 286 313 319 294 341 260 379 216 361 204 362 193 362 188 375 197 382 209 393 252 390 267 386 324 368 354 298 355 236 386 225 369 196 375 167 378 155 384 139 381 126M261 139C265 133 272 131 275 139zM290 150C296 99 235 120 238 149 251 155 278 155 290 150M235 306C248 306 267 305 271 295 277 276 256 285 247 286 235 288 212 283 207 290 198 305 222 306 233 306zM138 271L131 266C131 264 135 263 138 265 152 272 183 292 204 282 214 274 210 269 211 255 224 250 234 250 240 238 245 226 240 216 235 204 212 146 215 108 199 63 187 29 181 12 161 24 159 39 171 58 177 73 183 92 185 106 189 126 201 196 211 199 217 226L210 230C183 239 188 235 186 266 173 263 159 257 147 252S118 239 113 256C106 282 149 302 170 306 167 318 162 318 163 332 164 343 167 347 165 360 136 373 104 362 81 349 54 335 30 303 20 319 5 340 83 384 123 389 189 396 192 365 190 344 186 318 196 314 193 296 175 288 155 284 138 271M156 150C162 99 101 120 104 149 117 155 144 155 156 150" fill="#54eb0a" data-fill-palette-color="accent"></path></g></svg></g></svg></g><g></g></svg></g><defs></defs></svg><rect width="254.67014132109878" height="247.2" fill="none" stroke="none" visibility="hidden"></rect></g></svg></g></svg>